<?xml version="1.0" encoding="utf-8" standalone="no"?>
<!DOCTYPE svg PUBLIC "-//W3C//DTD SVG 1.1//EN"
  "http://www.w3.org/Graphics/SVG/1.1/DTD/svg11.dtd">
<svg xmlns:xlink="http://www.w3.org/1999/xlink" width="720pt" height="720pt" viewBox="0 0 720 720" xmlns="http://www.w3.org/2000/svg" version="1.1">
 <metadata>
  <rdf:RDF xmlns:dc="http://purl.org/dc/elements/1.1/" xmlns:cc="http://creativecommons.org/ns#" xmlns:rdf="http://www.w3.org/1999/02/22-rdf-syntax-ns#">
   <cc:Work>
    <dc:type rdf:resource="http://purl.org/dc/dcmitype/StillImage"/>
    <dc:date>2025-07-31T21:50:13.684344</dc:date>
    <dc:format>image/svg+xml</dc:format>
    <dc:creator>
     <cc:Agent>
      <dc:title>Matplotlib v3.7.1, https://matplotlib.org/</dc:title>
     </cc:Agent>
    </dc:creator>
   </cc:Work>
  </rdf:RDF>
 </metadata>
 <defs>
  <style type="text/css">*{stroke-linejoin: round; stroke-linecap: butt}</style>
 </defs>
 <g id="figure_1">
  <g id="patch_1">
   <path d="M 0 720 
L 720 720 
L 720 0 
L 0 0 
z
" style="fill: #ffffff"/>
  </g>
  <g id="axes_1">
   <g id="patch_2">
    <path d="M 90 576 
L 648 576 
L 648 86.4 
L 90 86.4 
z
" style="fill: #ffffff"/>
   </g>
   <g id="matplotlib.axis_1">
    <g id="xtick_1">
     <g id="line2d_1">
      <path d="M 90 576 
L 90 86.4 
" clip-path="url(#pc839aae7e6)" style="fill: none; stroke: #cccccc; stroke-width: 0.8; stroke-linecap: round"/>
     </g>
     <g id="text_1">
      <!-- 2007-01 -->
      <g style="fill: #262626" transform="translate(57.369837 606.623102) rotate(-30) scale(0.08 -0.08)">
       <defs>
        <path id="DejaVuSans-Bold-32" d="M 1844 884 
L 3897 884 
L 3897 0 
L 506 0 
L 506 884 
L 2209 2388 
Q 2438 2594 2547 2791 
Q 2656 2988 2656 3200 
Q 2656 3528 2436 3728 
Q 2216 3928 1850 3928 
Q 1569 3928 1234 3808 
Q 900 3688 519 3450 
L 519 4475 
Q 925 4609 1322 4679 
Q 1719 4750 2100 4750 
Q 2938 4750 3402 4381 
Q 3866 4013 3866 3353 
Q 3866 2972 3669 2642 
Q 3472 2313 2841 1759 
L 1844 884 
z
" transform="scale(0.015625)"/>
        <path id="DejaVuSans-Bold-30" d="M 2944 2338 
Q 2944 3213 2780 3570 
Q 2616 3928 2228 3928 
Q 1841 3928 1675 3570 
Q 1509 3213 1509 2338 
Q 1509 1453 1675 1090 
Q 1841 728 2228 728 
Q 2613 728 2778 1090 
Q 2944 1453 2944 2338 
z
M 4147 2328 
Q 4147 1169 3647 539 
Q 3147 -91 2228 -91 
Q 1306 -91 806 539 
Q 306 1169 306 2328 
Q 306 3491 806 4120 
Q 1306 4750 2228 4750 
Q 3147 4750 3647 4120 
Q 4147 3491 4147 2328 
z
" transform="scale(0.015625)"/>
        <path id="DejaVuSans-Bold-37" d="M 428 4666 
L 3944 4666 
L 3944 3988 
L 2125 0 
L 953 0 
L 2675 3781 
L 428 3781 
L 428 4666 
z
" transform="scale(0.015625)"/>
        <path id="DejaVuSans-Bold-2d" d="M 347 2297 
L 2309 2297 
L 2309 1388 
L 347 1388 
L 347 2297 
z
" transform="scale(0.015625)"/>
        <path id="DejaVuSans-Bold-31" d="M 750 831 
L 1813 831 
L 1813 3847 
L 722 3622 
L 722 4441 
L 1806 4666 
L 2950 4666 
L 2950 831 
L 4013 831 
L 4013 0 
L 750 0 
L 750 831 
z
" transform="scale(0.015625)"/>
       </defs>
       <use xlink:href="#DejaVuSans-Bold-32"/>
       <use xlink:href="#DejaVuSans-Bold-30" x="69.580078"/>
       <use xlink:href="#DejaVuSans-Bold-30" x="139.160156"/>
       <use xlink:href="#DejaVuSans-Bold-37" x="208.740234"/>
       <use xlink:href="#DejaVuSans-Bold-2d" x="278.320312"/>
       <use xlink:href="#DejaVuSans-Bold-30" x="319.824219"/>
       <use xlink:href="#DejaVuSans-Bold-31" x="389.404297"/>
      </g>
     </g>
    </g>
    <g id="xtick_2">
     <g id="line2d_2">
      <path d="M 159.129363 576 
L 159.129363 86.4 
" clip-path="url(#pc839aae7e6)" style="fill: none; stroke: #cccccc; stroke-width: 0.8; stroke-linecap: round"/>
     </g>
     <g id="text_2">
      <!-- 2007-07 -->
      <g style="fill: #262626" transform="translate(126.499201 606.623102) rotate(-30) scale(0.08 -0.08)">
       <use xlink:href="#DejaVuSans-Bold-32"/>
       <use xlink:href="#DejaVuSans-Bold-30" x="69.580078"/>
       <use xlink:href="#DejaVuSans-Bold-30" x="139.160156"/>
       <use xlink:href="#DejaVuSans-Bold-37" x="208.740234"/>
       <use xlink:href="#DejaVuSans-Bold-2d" x="278.320312"/>
       <use xlink:href="#DejaVuSans-Bold-30" x="319.824219"/>
       <use xlink:href="#DejaVuSans-Bold-37" x="389.404297"/>
      </g>
     </g>
    </g>
    <g id="xtick_3">
     <g id="line2d_3">
      <path d="M 229.404517 576 
L 229.404517 86.4 
" clip-path="url(#pc839aae7e6)" style="fill: none; stroke: #cccccc; stroke-width: 0.8; stroke-linecap: round"/>
     </g>
     <g id="text_3">
      <!-- 2008-01 -->
      <g style="fill: #262626" transform="translate(196.774355 606.623102) rotate(-30) scale(0.08 -0.08)">
       <defs>
        <path id="DejaVuSans-Bold-38" d="M 2228 2088 
Q 1891 2088 1709 1903 
Q 1528 1719 1528 1375 
Q 1528 1031 1709 848 
Q 1891 666 2228 666 
Q 2563 666 2741 848 
Q 2919 1031 2919 1375 
Q 2919 1722 2741 1905 
Q 2563 2088 2228 2088 
z
M 1350 2484 
Q 925 2613 709 2878 
Q 494 3144 494 3541 
Q 494 4131 934 4440 
Q 1375 4750 2228 4750 
Q 3075 4750 3515 4442 
Q 3956 4134 3956 3541 
Q 3956 3144 3739 2878 
Q 3522 2613 3097 2484 
Q 3572 2353 3814 2058 
Q 4056 1763 4056 1313 
Q 4056 619 3595 264 
Q 3134 -91 2228 -91 
Q 1319 -91 855 264 
Q 391 619 391 1313 
Q 391 1763 633 2058 
Q 875 2353 1350 2484 
z
M 1631 3419 
Q 1631 3141 1786 2991 
Q 1941 2841 2228 2841 
Q 2509 2841 2662 2991 
Q 2816 3141 2816 3419 
Q 2816 3697 2662 3845 
Q 2509 3994 2228 3994 
Q 1941 3994 1786 3844 
Q 1631 3694 1631 3419 
z
" transform="scale(0.015625)"/>
       </defs>
       <use xlink:href="#DejaVuSans-Bold-32"/>
       <use xlink:href="#DejaVuSans-Bold-30" x="69.580078"/>
       <use xlink:href="#DejaVuSans-Bold-30" x="139.160156"/>
       <use xlink:href="#DejaVuSans-Bold-38" x="208.740234"/>
       <use xlink:href="#DejaVuSans-Bold-2d" x="278.320312"/>
       <use xlink:href="#DejaVuSans-Bold-30" x="319.824219"/>
       <use xlink:href="#DejaVuSans-Bold-31" x="389.404297"/>
      </g>
     </g>
    </g>
    <g id="xtick_4">
     <g id="line2d_4">
      <path d="M 298.915811 576 
L 298.915811 86.4 
" clip-path="url(#pc839aae7e6)" style="fill: none; stroke: #cccccc; stroke-width: 0.8; stroke-linecap: round"/>
     </g>
     <g id="text_4">
      <!-- 2008-07 -->
      <g style="fill: #262626" transform="translate(266.285648 606.623102) rotate(-30) scale(0.08 -0.08)">
       <use xlink:href="#DejaVuSans-Bold-32"/>
       <use xlink:href="#DejaVuSans-Bold-30" x="69.580078"/>
       <use xlink:href="#DejaVuSans-Bold-30" x="139.160156"/>
       <use xlink:href="#DejaVuSans-Bold-38" x="208.740234"/>
       <use xlink:href="#DejaVuSans-Bold-2d" x="278.320312"/>
       <use xlink:href="#DejaVuSans-Bold-30" x="319.824219"/>
       <use xlink:href="#DejaVuSans-Bold-37" x="389.404297"/>
      </g>
     </g>
    </g>
    <g id="xtick_5">
     <g id="line2d_5">
      <path d="M 369.190965 576 
L 369.190965 86.4 
" clip-path="url(#pc839aae7e6)" style="fill: none; stroke: #cccccc; stroke-width: 0.8; stroke-linecap: round"/>
     </g>
     <g id="text_5">
      <!-- 2009-01 -->
      <g style="fill: #262626" transform="translate(336.560802 606.623102) rotate(-30) scale(0.08 -0.08)">
       <defs>
        <path id="DejaVuSans-Bold-39" d="M 641 103 
L 641 966 
Q 928 831 1190 764 
Q 1453 697 1709 697 
Q 2247 697 2547 995 
Q 2847 1294 2900 1881 
Q 2688 1725 2447 1647 
Q 2206 1569 1925 1569 
Q 1209 1569 770 1986 
Q 331 2403 331 3084 
Q 331 3838 820 4291 
Q 1309 4744 2131 4744 
Q 3044 4744 3544 4128 
Q 4044 3513 4044 2388 
Q 4044 1231 3459 570 
Q 2875 -91 1856 -91 
Q 1528 -91 1228 -42 
Q 928 6 641 103 
z
M 2125 2350 
Q 2441 2350 2600 2554 
Q 2759 2759 2759 3169 
Q 2759 3575 2600 3781 
Q 2441 3988 2125 3988 
Q 1809 3988 1650 3781 
Q 1491 3575 1491 3169 
Q 1491 2759 1650 2554 
Q 1809 2350 2125 2350 
z
" transform="scale(0.015625)"/>
       </defs>
       <use xlink:href="#DejaVuSans-Bold-32"/>
       <use xlink:href="#DejaVuSans-Bold-30" x="69.580078"/>
       <use xlink:href="#DejaVuSans-Bold-30" x="139.160156"/>
       <use xlink:href="#DejaVuSans-Bold-39" x="208.740234"/>
       <use xlink:href="#DejaVuSans-Bold-2d" x="278.320312"/>
       <use xlink:href="#DejaVuSans-Bold-30" x="319.824219"/>
       <use xlink:href="#DejaVuSans-Bold-31" x="389.404297"/>
      </g>
     </g>
    </g>
    <g id="xtick_6">
     <g id="line2d_6">
      <path d="M 438.320329 576 
L 438.320329 86.4 
" clip-path="url(#pc839aae7e6)" style="fill: none; stroke: #cccccc; stroke-width: 0.8; stroke-linecap: round"/>
     </g>
     <g id="text_6">
      <!-- 2009-07 -->
      <g style="fill: #262626" transform="translate(405.690166 606.623102) rotate(-30) scale(0.08 -0.08)">
       <use xlink:href="#DejaVuSans-Bold-32"/>
       <use xlink:href="#DejaVuSans-Bold-30" x="69.580078"/>
       <use xlink:href="#DejaVuSans-Bold-30" x="139.160156"/>
       <use xlink:href="#DejaVuSans-Bold-39" x="208.740234"/>
       <use xlink:href="#DejaVuSans-Bold-2d" x="278.320312"/>
       <use xlink:href="#DejaVuSans-Bold-30" x="319.824219"/>
       <use xlink:href="#DejaVuSans-Bold-37" x="389.404297"/>
      </g>
     </g>
    </g>
    <g id="xtick_7">
     <g id="line2d_7">
      <path d="M 508.595483 576 
L 508.595483 86.4 
" clip-path="url(#pc839aae7e6)" style="fill: none; stroke: #cccccc; stroke-width: 0.8; stroke-linecap: round"/>
     </g>
     <g id="text_7">
      <!-- 2010-01 -->
      <g style="fill: #262626" transform="translate(475.96532 606.623102) rotate(-30) scale(0.08 -0.08)">
       <use xlink:href="#DejaVuSans-Bold-32"/>
       <use xlink:href="#DejaVuSans-Bold-30" x="69.580078"/>
       <use xlink:href="#DejaVuSans-Bold-31" x="139.160156"/>
       <use xlink:href="#DejaVuSans-Bold-30" x="208.740234"/>
       <use xlink:href="#DejaVuSans-Bold-2d" x="278.320312"/>
       <use xlink:href="#DejaVuSans-Bold-30" x="319.824219"/>
       <use xlink:href="#DejaVuSans-Bold-31" x="389.404297"/>
      </g>
     </g>
    </g>
    <g id="xtick_8">
     <g id="line2d_8">
      <path d="M 577.724846 576 
L 577.724846 86.4 
" clip-path="url(#pc839aae7e6)" style="fill: none; stroke: #cccccc; stroke-width: 0.8; stroke-linecap: round"/>
     </g>
     <g id="text_8">
      <!-- 2010-07 -->
      <g style="fill: #262626" transform="translate(545.094683 606.623102) rotate(-30) scale(0.08 -0.08)">
       <use xlink:href="#DejaVuSans-Bold-32"/>
       <use xlink:href="#DejaVuSans-Bold-30" x="69.580078"/>
       <use xlink:href="#DejaVuSans-Bold-31" x="139.160156"/>
       <use xlink:href="#DejaVuSans-Bold-30" x="208.740234"/>
       <use xlink:href="#DejaVuSans-Bold-2d" x="278.320312"/>
       <use xlink:href="#DejaVuSans-Bold-30" x="319.824219"/>
       <use xlink:href="#DejaVuSans-Bold-37" x="389.404297"/>
      </g>
     </g>
    </g>
    <g id="xtick_9">
     <g id="line2d_9">
      <path d="M 648 576 
L 648 86.4 
" clip-path="url(#pc839aae7e6)" style="fill: none; stroke: #cccccc; stroke-width: 0.8; stroke-linecap: round"/>
     </g>
     <g id="text_9">
      <!-- 2011-01 -->
      <g style="fill: #262626" transform="translate(615.369837 606.623102) rotate(-30) scale(0.08 -0.08)">
       <use xlink:href="#DejaVuSans-Bold-32"/>
       <use xlink:href="#DejaVuSans-Bold-30" x="69.580078"/>
       <use xlink:href="#DejaVuSans-Bold-31" x="139.160156"/>
       <use xlink:href="#DejaVuSans-Bold-31" x="208.740234"/>
       <use xlink:href="#DejaVuSans-Bold-2d" x="278.320312"/>
       <use xlink:href="#DejaVuSans-Bold-30" x="319.824219"/>
       <use xlink:href="#DejaVuSans-Bold-31" x="389.404297"/>
      </g>
     </g>
    </g>
    <g id="text_10">
     <!-- Date -->
     <g style="fill: #262626" transform="translate(359.439375 618.142702) scale(0.08 -0.08)">
      <defs>
       <path id="DejaVuSans-44" d="M 1259 4147 
L 1259 519 
L 2022 519 
Q 2988 519 3436 956 
Q 3884 1394 3884 2338 
Q 3884 3275 3436 3711 
Q 2988 4147 2022 4147 
L 1259 4147 
z
M 628 4666 
L 1925 4666 
Q 3281 4666 3915 4102 
Q 4550 3538 4550 2338 
Q 4550 1131 3912 565 
Q 3275 0 1925 0 
L 628 0 
L 628 4666 
z
" transform="scale(0.015625)"/>
       <path id="DejaVuSans-61" d="M 2194 1759 
Q 1497 1759 1228 1600 
Q 959 1441 959 1056 
Q 959 750 1161 570 
Q 1363 391 1709 391 
Q 2188 391 2477 730 
Q 2766 1069 2766 1631 
L 2766 1759 
L 2194 1759 
z
M 3341 1997 
L 3341 0 
L 2766 0 
L 2766 531 
Q 2569 213 2275 61 
Q 1981 -91 1556 -91 
Q 1019 -91 701 211 
Q 384 513 384 1019 
Q 384 1609 779 1909 
Q 1175 2209 1959 2209 
L 2766 2209 
L 2766 2266 
Q 2766 2663 2505 2880 
Q 2244 3097 1772 3097 
Q 1472 3097 1187 3025 
Q 903 2953 641 2809 
L 641 3341 
Q 956 3463 1253 3523 
Q 1550 3584 1831 3584 
Q 2591 3584 2966 3190 
Q 3341 2797 3341 1997 
z
" transform="scale(0.015625)"/>
       <path id="DejaVuSans-74" d="M 1172 4494 
L 1172 3500 
L 2356 3500 
L 2356 3053 
L 1172 3053 
L 1172 1153 
Q 1172 725 1289 603 
Q 1406 481 1766 481 
L 2356 481 
L 2356 0 
L 1766 0 
Q 1100 0 847 248 
Q 594 497 594 1153 
L 594 3053 
L 172 3053 
L 172 3500 
L 594 3500 
L 594 4494 
L 1172 4494 
z
" transform="scale(0.015625)"/>
       <path id="DejaVuSans-65" d="M 3597 1894 
L 3597 1613 
L 953 1613 
Q 991 1019 1311 708 
Q 1631 397 2203 397 
Q 2534 397 2845 478 
Q 3156 559 3463 722 
L 3463 178 
Q 3153 47 2828 -22 
Q 2503 -91 2169 -91 
Q 1331 -91 842 396 
Q 353 884 353 1716 
Q 353 2575 817 3079 
Q 1281 3584 2069 3584 
Q 2775 3584 3186 3129 
Q 3597 2675 3597 1894 
z
M 3022 2063 
Q 3016 2534 2758 2815 
Q 2500 3097 2075 3097 
Q 1594 3097 1305 2825 
Q 1016 2553 972 2059 
L 3022 2063 
z
" transform="scale(0.015625)"/>
      </defs>
      <use xlink:href="#DejaVuSans-44"/>
      <use xlink:href="#DejaVuSans-61" x="77.001953"/>
      <use xlink:href="#DejaVuSans-74" x="138.28125"/>
      <use xlink:href="#DejaVuSans-65" x="177.490234"/>
     </g>
    </g>
   </g>
   <g id="matplotlib.axis_2">
    <g id="ytick_1">
     <g id="line2d_10">
      <path d="M 90 576 
L 648 576 
" clip-path="url(#pc839aae7e6)" style="fill: none; stroke: #cccccc; stroke-width: 0.8; stroke-linecap: round"/>
     </g>
     <g id="text_11">
      <!-- 600 -->
      <g style="fill: #262626" transform="translate(66.30125 579.039375) scale(0.08 -0.08)">
       <defs>
        <path id="DejaVuSans-Bold-36" d="M 2316 2303 
Q 2000 2303 1842 2098 
Q 1684 1894 1684 1484 
Q 1684 1075 1842 870 
Q 2000 666 2316 666 
Q 2634 666 2792 870 
Q 2950 1075 2950 1484 
Q 2950 1894 2792 2098 
Q 2634 2303 2316 2303 
z
M 3803 4544 
L 3803 3681 
Q 3506 3822 3243 3889 
Q 2981 3956 2731 3956 
Q 2194 3956 1894 3657 
Q 1594 3359 1544 2772 
Q 1750 2925 1990 3001 
Q 2231 3078 2516 3078 
Q 3231 3078 3670 2659 
Q 4109 2241 4109 1563 
Q 4109 813 3618 361 
Q 3128 -91 2303 -91 
Q 1394 -91 895 523 
Q 397 1138 397 2266 
Q 397 3422 980 4083 
Q 1563 4744 2578 4744 
Q 2900 4744 3203 4694 
Q 3506 4644 3803 4544 
z
" transform="scale(0.015625)"/>
       </defs>
       <use xlink:href="#DejaVuSans-Bold-36"/>
       <use xlink:href="#DejaVuSans-Bold-30" x="69.580078"/>
       <use xlink:href="#DejaVuSans-Bold-30" x="139.160156"/>
      </g>
     </g>
    </g>
    <g id="ytick_2">
     <g id="line2d_11">
      <path d="M 90 494.4 
L 648 494.4 
" clip-path="url(#pc839aae7e6)" style="fill: none; stroke: #cccccc; stroke-width: 0.8; stroke-linecap: round"/>
     </g>
     <g id="text_12">
      <!-- 800 -->
      <g style="fill: #262626" transform="translate(66.30125 497.439375) scale(0.08 -0.08)">
       <use xlink:href="#DejaVuSans-Bold-38"/>
       <use xlink:href="#DejaVuSans-Bold-30" x="69.580078"/>
       <use xlink:href="#DejaVuSans-Bold-30" x="139.160156"/>
      </g>
     </g>
    </g>
    <g id="ytick_3">
     <g id="line2d_12">
      <path d="M 90 412.8 
L 648 412.8 
" clip-path="url(#pc839aae7e6)" style="fill: none; stroke: #cccccc; stroke-width: 0.8; stroke-linecap: round"/>
     </g>
     <g id="text_13">
      <!-- 1000 -->
      <g style="fill: #262626" transform="translate(60.735 415.839375) scale(0.08 -0.08)">
       <use xlink:href="#DejaVuSans-Bold-31"/>
       <use xlink:href="#DejaVuSans-Bold-30" x="69.580078"/>
       <use xlink:href="#DejaVuSans-Bold-30" x="139.160156"/>
       <use xlink:href="#DejaVuSans-Bold-30" x="208.740234"/>
      </g>
     </g>
    </g>
    <g id="ytick_4">
     <g id="line2d_13">
      <path d="M 90 331.2 
L 648 331.2 
" clip-path="url(#pc839aae7e6)" style="fill: none; stroke: #cccccc; stroke-width: 0.8; stroke-linecap: round"/>
     </g>
     <g id="text_14">
      <!-- 1200 -->
      <g style="fill: #262626" transform="translate(60.735 334.239375) scale(0.08 -0.08)">
       <use xlink:href="#DejaVuSans-Bold-31"/>
       <use xlink:href="#DejaVuSans-Bold-32" x="69.580078"/>
       <use xlink:href="#DejaVuSans-Bold-30" x="139.160156"/>
       <use xlink:href="#DejaVuSans-Bold-30" x="208.740234"/>
      </g>
     </g>
    </g>
    <g id="ytick_5">
     <g id="line2d_14">
      <path d="M 90 249.6 
L 648 249.6 
" clip-path="url(#pc839aae7e6)" style="fill: none; stroke: #cccccc; stroke-width: 0.8; stroke-linecap: round"/>
     </g>
     <g id="text_15">
      <!-- 1400 -->
      <g style="fill: #262626" transform="translate(60.735 252.639375) scale(0.08 -0.08)">
       <defs>
        <path id="DejaVuSans-Bold-34" d="M 2356 3675 
L 1038 1722 
L 2356 1722 
L 2356 3675 
z
M 2156 4666 
L 3494 4666 
L 3494 1722 
L 4159 1722 
L 4159 850 
L 3494 850 
L 3494 0 
L 2356 0 
L 2356 850 
L 288 850 
L 288 1881 
L 2156 4666 
z
" transform="scale(0.015625)"/>
       </defs>
       <use xlink:href="#DejaVuSans-Bold-31"/>
       <use xlink:href="#DejaVuSans-Bold-34" x="69.580078"/>
       <use xlink:href="#DejaVuSans-Bold-30" x="139.160156"/>
       <use xlink:href="#DejaVuSans-Bold-30" x="208.740234"/>
      </g>
     </g>
    </g>
    <g id="ytick_6">
     <g id="line2d_15">
      <path d="M 90 168 
L 648 168 
" clip-path="url(#pc839aae7e6)" style="fill: none; stroke: #cccccc; stroke-width: 0.8; stroke-linecap: round"/>
     </g>
     <g id="text_16">
      <!-- 1600 -->
      <g style="fill: #262626" transform="translate(60.735 171.039375) scale(0.08 -0.08)">
       <use xlink:href="#DejaVuSans-Bold-31"/>
       <use xlink:href="#DejaVuSans-Bold-36" x="69.580078"/>
       <use xlink:href="#DejaVuSans-Bold-30" x="139.160156"/>
       <use xlink:href="#DejaVuSans-Bold-30" x="208.740234"/>
      </g>
     </g>
    </g>
    <g id="ytick_7">
     <g id="line2d_16">
      <path d="M 90 86.4 
L 648 86.4 
" clip-path="url(#pc839aae7e6)" style="fill: none; stroke: #cccccc; stroke-width: 0.8; stroke-linecap: round"/>
     </g>
     <g id="text_17">
      <!-- 1800 -->
      <g style="fill: #262626" transform="translate(60.735 89.439375) scale(0.08 -0.08)">
       <use xlink:href="#DejaVuSans-Bold-31"/>
       <use xlink:href="#DejaVuSans-Bold-38" x="69.580078"/>
       <use xlink:href="#DejaVuSans-Bold-30" x="139.160156"/>
       <use xlink:href="#DejaVuSans-Bold-30" x="208.740234"/>
      </g>
     </g>
    </g>
   </g>
   <g id="line2d_17">
    <path d="M 88.854209 242.1336 
L 90.76386 242.8272 
L 91.145791 242.11728 
L 91.527721 245.63832 
L 92.673511 244.36128 
L 93.055441 244.65912 
L 93.437372 243.5412 
L 94.201232 237.06216 
L 95.728953 236.5848 
L 96.110883 237.10704 
L 96.492813 238.84104 
L 96.874743 237.156 
L 98.020534 240.2364 
L 98.402464 238.18008 
L 98.784394 233.22696 
L 99.166324 239.8488 
L 99.548255 240.55056 
L 100.694045 241.18704 
L 101.839836 230.85648 
L 102.221766 229.85688 
L 103.367556 230.42808 
L 103.749487 230.016 
L 104.131417 229.19184 
L 104.513347 229.88952 
L 104.895277 234.07152 
L 106.041068 235.98504 
L 106.804928 227.0376 
L 107.186858 226.42152 
L 107.568789 226.93968 
L 109.096509 225.25056 
L 109.478439 226.08696 
L 109.86037 226.59696 
L 110.2423 228.71448 
L 111.38809 229.45704 
L 111.770021 249.99168 
L 112.151951 246.81744 
L 112.533881 248.30664 
L 112.915811 254.83464 
L 114.061602 260.15904 
L 114.443532 251.47272 
L 114.825462 252.87624 
L 115.207392 248.82888 
L 115.589322 248.44128 
L 116.735113 246.9072 
L 117.117043 258.5964 
L 117.498973 254.83464 
L 117.880903 252.74976 
L 118.262834 254.9244 
L 119.408624 248.75952 
L 119.790554 245.13648 
L 120.172485 235.30368 
L 120.554415 235.50768 
L 120.936345 234.86712 
L 122.082136 234.3 
L 122.845996 242.57016 
L 123.227926 240.40776 
L 123.609856 241.08912 
L 124.755647 239.5836 
L 125.137577 234.18984 
L 125.519507 233.53704 
L 125.901437 231.74592 
L 127.429158 231.39912 
L 127.811088 229.85688 
L 128.193018 233.74104 
L 128.574949 230.0976 
L 130.102669 221.72136 
L 130.4846 220.43616 
L 130.86653 220.02 
L 131.24846 220.74216 
L 131.63039 215.1852 
L 132.776181 216.58056 
L 133.158111 216.79272 
L 133.540041 210.66864 
L 133.921971 211.146 
L 134.303901 211.21944 
L 135.449692 215.99304 
L 135.831622 214.3896 
L 136.213552 210.46464 
L 136.595483 207.82488 
L 136.977413 206.50704 
L 138.123203 204.93216 
L 138.505133 205.65024 
L 138.887064 203.66736 
L 139.268994 212.28024 
L 139.650924 206.4132 
L 140.796715 207.5148 
L 141.178645 208.31448 
L 141.560575 203.03088 
L 141.942505 203.598 
L 142.324435 199.518 
L 143.470226 198.5592 
L 143.852156 198.95904 
L 144.234086 199.70976 
L 144.616016 205.73592 
L 144.997947 202.38216 
L 146.525667 201.41112 
L 146.907598 196.46616 
L 147.289528 196.30704 
L 147.671458 193.97328 
L 148.817248 192.81456 
L 149.199179 196.1724 
L 149.581109 201.70896 
L 149.963039 212.58624 
L 150.344969 205.67064 
L 151.49076 205.07904 
L 151.87269 211.656 
L 152.25462 202.40664 
L 152.63655 199.42824 
L 153.01848 195.37272 
L 154.164271 196.1316 
L 154.546201 195.0504 
L 154.928131 203.56128 
L 155.310062 199.74648 
L 155.691992 207.75552 
L 156.837782 209.72208 
L 157.219713 211.70088 
L 157.601643 206.21328 
L 157.983573 206.47032 
L 158.365503 207.4332 
L 159.893224 198.65304 
L 160.657084 198.4368 
L 161.039014 196.38048 
L 162.184805 195.8052 
L 162.566735 204.67104 
L 162.948665 201.14592 
L 163.330595 189.3384 
L 163.712526 187.38 
L 164.858316 188.59584 
L 165.240246 188.65704 
L 165.622177 189.96264 
L 166.004107 187.14336 
L 166.386037 194.8872 
L 167.531828 191.83944 
L 167.913758 204.29568 
L 168.295688 201.41928 
L 168.677618 215.87472 
L 169.059548 225.5484 
L 170.205339 219.44472 
L 170.587269 227.04984 
L 170.969199 222.74952 
L 171.351129 220.1424 
L 171.73306 236.11152 
L 173.26078 218.30232 
L 173.64271 209.82408 
L 174.024641 227.93928 
L 174.406571 227.71488 
L 175.552361 228.00864 
L 176.316222 246.8664 
L 176.698152 245.00184 
L 177.080082 230.85648 
L 178.225873 231.0156 
L 178.607803 230.37504 
L 178.989733 223.45944 
L 179.371663 224.1 
L 179.753593 217.21704 
L 180.899384 222.34968 
L 181.281314 236.39712 
L 181.663244 223.58592 
L 182.045175 226.08288 
L 182.427105 219.41208 
L 183.954825 213.11664 
L 184.336756 220.10568 
L 184.718686 217.5516 
L 185.100616 227.7516 
L 186.246407 228.5064 
L 186.628337 220.43208 
L 187.010267 220.40352 
L 187.392197 215.3484 
L 187.774127 215.226 
L 188.919918 218.3268 
L 189.301848 200.72976 
L 189.683778 196.95576 
L 190.065708 201.15 
L 190.447639 198.294 
L 191.593429 201.56616 
L 191.975359 201.77832 
L 192.73922 195.99696 
L 193.12115 197.886 
L 194.26694 189.60768 
L 194.648871 189.77496 
L 195.030801 192.64728 
L 195.412731 191.32128 
L 195.794661 185.30328 
L 196.940452 187.34736 
L 197.322382 182.2188 
L 197.704312 183.31224 
L 198.086242 186.60072 
L 198.468172 183.5856 
L 199.613963 188.92632 
L 199.995893 193.07976 
L 200.377823 191.97408 
L 200.759754 192.44736 
L 201.141684 208.54296 
L 202.287474 206.21736 
L 202.669405 200.80728 
L 203.051335 202.32096 
L 203.433265 202.9248 
L 203.815195 194.40576 
L 204.960986 192.08016 
L 205.342916 196.14384 
L 205.724846 188.65296 
L 206.106776 205.35648 
L 206.488706 204.8628 
L 207.634497 207.91464 
L 208.016427 200.52984 
L 208.398357 218.74704 
L 208.780287 219.09384 
L 209.162218 227.6904 
L 210.308008 233.61456 
L 210.689938 216.5316 
L 211.071869 220.80336 
L 211.453799 228.7308 
L 211.835729 225.63408 
L 212.98152 236.02584 
L 213.36345 233.4024 
L 213.74538 242.75784 
L 214.50924 232.9944 
L 215.655031 246.65424 
L 216.036961 238.08216 
L 216.418891 221.43984 
L 216.800821 221.15424 
L 217.182752 216.49488 
L 218.328542 220.05264 
L 218.710472 223.98168 
L 219.474333 205.80528 
L 219.856263 206.89872 
L 221.002053 202.28832 
L 221.383984 217.9188 
L 221.765914 214.27128 
L 222.147844 213.52872 
L 222.529774 221.8764 
L 223.675565 230.8728 
L 224.057495 227.16816 
L 224.439425 227.976 
L 224.821355 225.07104 
L 225.203285 215.14032 
L 226.349076 210.2484 
L 227.112936 209.75472 
L 227.494867 218.48184 
L 227.876797 217.57608 
L 229.022587 221.70912 
L 229.786448 230.35872 
L 230.168378 230.35872 
L 230.550308 244.85496 
L 231.696099 242.99856 
L 232.078029 253.60248 
L 232.459959 245.87496 
L 232.841889 241.30536 
L 233.223819 249.18384 
L 234.36961 242.97 
L 234.75154 257.3724 
L 235.13347 260.5344 
L 235.5154 276.834 
L 235.897331 280.12248 
L 237.425051 286.116 
L 237.806982 274.6512 
L 238.188912 269.15544 
L 238.570842 277.91112 
L 240.098563 264.9816 
L 240.480493 267.62952 
L 241.244353 251.46864 
L 242.390144 257.42544 
L 242.772074 275.45088 
L 243.154004 279.6084 
L 243.535934 275.34072 
L 243.917864 277.63368 
L 245.063655 274.43496 
L 245.445585 270.46512 
L 245.827515 262.97832 
L 246.209446 270.46512 
L 246.591376 270.00408 
L 248.119097 270.49776 
L 248.501027 265.90776 
L 248.882957 273.04776 
L 249.264887 268.73112 
L 250.410678 261.1056 
L 250.792608 257.23368 
L 251.174538 257.75184 
L 251.556468 262.78656 
L 251.938398 277.90296 
L 253.084189 277.61328 
L 253.466119 279.486 
L 253.848049 276.6504 
L 254.229979 288.62928 
L 254.61191 293.10504 
L 255.7577 301.26504 
L 256.13963 281.9748 
L 256.521561 286.82184 
L 256.903491 284.08416 
L 257.285421 295.23888 
L 258.431211 299.9472 
L 258.813142 277.85808 
L 259.195072 291.04464 
L 259.577002 278.35992 
L 261.104723 270.04896 
L 261.486653 268.78008 
L 261.868583 273.61896 
L 262.250513 279.88992 
L 262.632444 284.19024 
L 263.778234 281.1384 
L 264.160164 261.76656 
L 264.542094 262.84776 
L 264.924025 262.12152 
L 265.305955 261.6768 
L 266.451745 260.80368 
L 266.833676 263.65968 
L 267.215606 268.16808 
L 267.597536 265.6956 
L 267.979466 277.00536 
L 269.125257 278.84544 
L 269.507187 276.35256 
L 269.889117 263.99832 
L 270.271047 263.65152 
L 270.652977 253.54536 
L 271.798768 254.42664 
L 272.180698 259.41648 
L 272.562628 257.78856 
L 273.326489 250.48128 
L 274.472279 251.08104 
L 275.23614 255.47928 
L 275.61807 245.78928 
L 276 243.9288 
L 277.145791 246.54408 
L 277.527721 242.14992 
L 277.909651 252.63144 
L 278.291581 250.54656 
L 278.673511 254.38176 
L 279.819302 248.13936 
L 280.201232 248.35968 
L 280.583162 246.06672 
L 280.965092 239.98344 
L 281.347023 239.2572 
L 282.492813 238.73496 
L 282.874743 244.1328 
L 283.256674 253.39032 
L 283.638604 251.9052 
L 284.020534 259.42056 
L 285.548255 255.5772 
L 285.930185 253.33728 
L 286.312115 250.30992 
L 286.694045 249.44496 
L 287.839836 255.44664 
L 288.221766 258.7188 
L 288.603696 258.9024 
L 288.985626 247.9476 
L 289.367556 265.64256 
L 290.513347 265.20192 
L 290.895277 266.55648 
L 291.277207 275.92008 
L 291.659138 274.13304 
L 292.041068 265.90776 
L 293.186858 265.86288 
L 293.568789 269.62056 
L 293.950719 274.97352 
L 294.332649 272.92536 
L 294.714579 283.08456 
L 295.86037 283.056 
L 296.2423 284.56968 
L 296.62423 281.43624 
L 297.00616 297.2748 
L 297.38809 299.22096 
L 298.533881 298.56 
L 298.915811 296.55672 
L 299.297741 306.09984 
L 299.679671 305.5368 
L 301.207392 309.85752 
L 301.589322 301.1304 
L 301.971253 312.96648 
L 302.353183 309.41688 
L 302.735113 315.08808 
L 303.880903 319.6536 
L 304.262834 325.11672 
L 304.644764 312.69312 
L 305.026694 306.58944 
L 305.408624 306.44256 
L 306.554415 306.72 
L 306.936345 299.784 
L 307.318275 297.66648 
L 307.700205 309.76368 
L 308.082136 307.63392 
L 309.227926 317.17704 
L 309.991786 296.82192 
L 310.373717 303.70896 
L 310.755647 306.59352 
L 311.901437 311.20392 
L 312.283368 296.56896 
L 312.665298 294.81048 
L 313.047228 304.24344 
L 313.429158 291.90144 
L 314.574949 288.22944 
L 314.956879 294.64728 
L 315.338809 296.18136 
L 316.102669 291.1344 
L 317.24846 299.1312 
L 317.63039 303.99048 
L 318.01232 300.78768 
L 318.394251 299.49024 
L 318.776181 293.5824 
L 319.921971 303.92928 
L 320.303901 302.02392 
L 320.685832 297.88272 
L 321.067762 290.12256 
L 321.449692 297.40536 
L 322.977413 299.54736 
L 323.359343 300.60816 
L 323.741273 316.17336 
L 324.123203 313.93752 
L 325.268994 303.54168 
L 325.650924 321.19992 
L 326.032854 318.12768 
L 326.414784 311.1876 
L 326.796715 310.1064 
L 327.942505 334.1784 
L 328.324435 325.6512 
L 328.706366 348.99288 
L 329.470226 308.72736 
L 330.997947 336.00624 
L 331.379877 336.96504 
L 331.761807 327.45456 
L 332.143737 325.78584 
L 333.289528 369.38064 
L 333.671458 344.92512 
L 334.053388 347.08752 
L 334.435318 366.17376 
L 335.963039 389.58888 
L 336.344969 414.33816 
L 336.726899 418.94448 
L 337.10883 449.55264 
L 337.49076 453.91824 
L 338.63655 411.4332 
L 339.01848 413.61192 
L 339.400411 450.40128 
L 339.782341 434.65656 
L 340.164271 437.0556 
L 341.310062 418.7568 
L 341.691992 431.1396 
L 342.073922 454.91376 
L 342.455852 450.29112 
L 342.837782 463.07784 
L 343.983573 474.44064 
L 344.365503 437.07192 
L 344.747433 441.32328 
L 345.129363 431.53128 
L 345.511294 425.55 
L 346.657084 426.5496 
L 347.039014 410.454 
L 347.802875 451.60896 
L 348.184805 440.95608 
L 349.330595 445.76232 
L 349.712526 454.0284 
L 350.094456 473.0616 
L 350.476386 448.99368 
L 350.858316 464.49768 
L 352.004107 473.694 
L 352.386037 470.27904 
L 353.149897 513.80448 
L 353.531828 494.38776 
L 354.677618 473.26152 
L 355.059548 470.98488 
L 355.441478 458.62656 
L 356.205339 455.13408 
L 357.351129 487.78632 
L 357.73306 474.48552 
L 358.11499 465.53808 
L 358.49692 475.95024 
L 358.87885 463.36344 
L 360.024641 449.6424 
L 360.406571 458.22264 
L 360.788501 453.91008 
L 361.170431 464.37528 
L 361.552361 461.87016 
L 362.698152 466.42344 
L 363.080082 448.22256 
L 363.462012 451.79664 
L 363.843943 459.60576 
L 364.225873 458.54496 
L 365.371663 465.17496 
L 365.753593 468.63072 
L 366.135524 466.5948 
L 366.899384 464.6976 
L 368.045175 466.07664 
L 368.427105 457.41888 
L 369.572895 440.6256 
L 370.718686 442.4004 
L 371.100616 439.4424 
L 371.482546 450.8868 
L 371.864476 449.63016 
L 372.246407 457.5372 
L 373.392197 465.73392 
L 373.774127 465.10968 
L 374.156057 477.01104 
L 374.537988 476.55408 
L 374.919918 473.95104 
L 376.447639 492.27024 
L 376.829569 477.98208 
L 377.211499 483.18 
L 377.593429 481.3644 
L 378.73922 479.47944 
L 379.12115 475.75032 
L 379.50308 464.17128 
L 379.88501 475.98288 
L 380.26694 483.84096 
L 381.412731 484.02048 
L 381.794661 478.68792 
L 382.176591 481.25016 
L 382.558522 475.6932 
L 382.940452 466.4112 
L 384.086242 465.88488 
L 384.468172 483.31872 
L 384.850103 480.63408 
L 385.232033 480.04248 
L 385.613963 483.44928 
L 387.141684 498.81864 
L 387.523614 499.12464 
L 389.433265 517.52136 
L 389.815195 505.35888 
L 390.197125 508.7208 
L 390.579055 513.64536 
L 390.960986 520.88328 
L 392.106776 534.86544 
L 392.488706 536.69736 
L 392.870637 529.94904 
L 393.252567 542.3196 
L 393.634497 541.98096 
L 394.780287 544.77576 
L 395.162218 527.2032 
L 395.544148 526.48512 
L 395.926078 514.49808 
L 396.308008 512.1276 
L 397.453799 513.21288 
L 397.835729 503.32704 
L 398.217659 496.7052 
L 398.599589 500.91168 
L 398.98152 507.23568 
L 400.12731 485.04864 
L 400.50924 491.90304 
L 400.89117 488.73696 
L 401.273101 480.99312 
L 401.655031 487.89648 
L 402.800821 499.48776 
L 403.564682 489.87936 
L 403.946612 480.37296 
L 404.328542 477.06 
L 405.474333 479.92416 
L 405.856263 488.0556 
L 406.238193 484.13472 
L 406.620123 471.32352 
L 408.147844 470.43816 
L 408.529774 477.468 
L 409.293634 467.7576 
L 409.675565 466.0032 
L 410.821355 481.18488 
L 411.203285 473.96736 
L 411.585216 476.6316 
L 411.967146 473.21664 
L 412.349076 467.37816 
L 413.876797 471.89472 
L 414.258727 464.35488 
L 414.640657 464.69352 
L 415.022587 462.77184 
L 416.168378 450.64608 
L 416.550308 452.0496 
L 416.932238 445.63176 
L 417.314168 450.58488 
L 417.696099 441.67416 
L 418.841889 449.83008 
L 419.223819 450.1932 
L 419.605749 460.16064 
L 419.98768 456.42744 
L 420.36961 460.58496 
L 421.5154 449.63832 
L 421.897331 450.28296 
L 422.279261 452.18424 
L 422.661191 458.36136 
L 423.043121 458.904 
L 424.570842 449.38536 
L 424.952772 456.43152 
L 425.716632 445.79088 
L 426.862423 436.10904 
L 427.244353 435.34608 
L 427.626283 440.64192 
L 428.008214 436.27632 
L 428.390144 437.24328 
L 429.535934 437.63088 
L 429.917864 436.28856 
L 430.299795 437.6268 
L 430.681725 435.28488 
L 431.063655 434.74632 
L 432.209446 443.92224 
L 432.591376 448.71624 
L 432.973306 449.23032 
L 433.355236 446.10504 
L 433.737166 444.93816 
L 434.882957 456.43968 
L 435.264887 455.5992 
L 435.646817 453.21648 
L 436.028747 445.33392 
L 436.410678 445.8888 
L 437.556468 442.49016 
L 437.938398 445.71744 
L 438.320329 444.08136 
L 438.702259 455.06064 
L 440.229979 454.12224 
L 440.61191 461.33976 
L 440.99384 461.93952 
L 441.37577 460.66656 
L 441.7577 462.11496 
L 442.903491 453.1716 
L 443.285421 451.21728 
L 443.667351 440.26656 
L 444.049281 436.97808 
L 444.431211 437.12496 
L 445.958932 431.33136 
L 446.340862 431.53944 
L 446.722793 422.47368 
L 447.104723 421.26192 
L 448.250513 420.07056 
L 448.632444 421.11504 
L 449.014374 422.9388 
L 449.396304 418.206 
L 449.778234 417.90816 
L 450.924025 411.72696 
L 451.305955 410.4948 
L 451.687885 411.69024 
L 452.069815 413.99136 
L 452.451745 408.52416 
L 453.597536 409.9032 
L 453.979466 415.1052 
L 454.361396 410.42952 
L 454.743326 407.60616 
L 456.271047 421.07016 
L 456.652977 417.01464 
L 457.034908 414.24432 
L 457.416838 409.79304 
L 457.798768 402.13896 
L 458.944559 402.36744 
L 459.326489 401.376 
L 459.708419 401.32704 
L 460.090349 400.16016 
L 460.472279 400.99656 
L 461.61807 404.38704 
L 462 413.59968 
L 462.38193 414.942 
L 462.76386 411.47808 
L 463.145791 406.1088 
L 464.673511 402.44088 
L 465.055441 399.18504 
L 465.437372 394.79088 
L 465.819302 395.36616 
L 466.965092 392.66928 
L 467.347023 391.32696 
L 467.728953 384.74592 
L 468.110883 386.08008 
L 468.492813 384.9336 
L 469.638604 386.41872 
L 470.020534 383.56272 
L 470.784394 392.08176 
L 471.166324 394.69296 
L 472.312115 387.10416 
L 472.694045 388.07112 
L 473.075975 389.51136 
L 473.457906 400.6212 
L 473.839836 402.51432 
L 474.985626 396.29232 
L 475.367556 390.47424 
L 475.749487 389.30736 
L 476.513347 383.63208 
L 477.659138 381.71448 
L 478.041068 382.93848 
L 478.422998 375.25584 
L 478.804928 373.40352 
L 479.186858 377.02656 
L 480.332649 372.85272 
L 480.714579 375.64752 
L 481.096509 379.5888 
L 481.478439 374.89272 
L 481.86037 380.3232 
L 483.38809 386.92872 
L 483.770021 395.40696 
L 484.151951 385.82712 
L 484.533881 398.03448 
L 486.061602 394.27272 
L 486.443532 393.828 
L 486.825462 385.61496 
L 487.207392 384.5256 
L 488.353183 374.82336 
L 488.735113 374.85192 
L 489.117043 372.60792 
L 489.498973 377.20608 
L 489.880903 374.66016 
L 491.026694 368.2056 
L 491.408624 367.78944 
L 491.790554 368.0016 
L 492.172485 374.0808 
L 492.554415 375.51696 
L 493.700205 369.45408 
L 494.082136 369.6948 
L 494.464066 367.66296 
L 495.227926 375.47208 
L 496.373717 373.78296 
L 496.755647 368.38512 
L 497.137577 368.23008 
L 497.519507 372.03264 
L 497.901437 369.56016 
L 499.047228 370.674 
L 499.429158 375.28848 
L 499.811088 373.6524 
L 500.193018 371.0412 
L 500.574949 369.38472 
L 501.720739 366.24312 
L 502.102669 368.76456 
L 502.4846 368.25456 
L 502.86653 373.59936 
L 503.24846 370.99224 
L 504.776181 364.64784 
L 505.158111 363.59928 
L 505.540041 361.19616 
L 507.067762 360.66576 
L 507.449692 361.3104 
L 507.831622 361.22064 
L 508.213552 365.8392 
L 510.123203 357.09984 
L 510.505133 356.84688 
L 511.268994 353.64816 
L 512.414784 352.83216 
L 512.796715 357.22224 
L 513.178645 353.36256 
L 513.560575 352.22832 
L 513.942505 357.29976 
L 515.470226 351.50616 
L 515.852156 356.47968 
L 516.616016 375.36192 
L 517.761807 373.31376 
L 518.143737 375.19464 
L 518.525667 373.02 
L 519.289528 382.66104 
L 520.435318 376.41048 
L 520.817248 370.64544 
L 521.199179 373.10976 
L 521.581109 387.05112 
L 521.963039 385.79448 
L 523.10883 389.65008 
L 523.49076 384.02784 
L 523.87269 385.00296 
L 524.25462 380.78424 
L 524.63655 381.99192 
L 526.546201 372.19992 
L 526.928131 369.246 
L 527.310062 368.25864 
L 528.455852 368.73192 
L 528.837782 374.2032 
L 529.219713 369.86208 
L 529.601643 370.80048 
L 529.983573 370.16808 
L 531.129363 365.59032 
L 531.511294 364.52952 
L 531.893224 364.33368 
L 532.275154 362.62824 
L 532.657084 356.2104 
L 533.802875 356.292 
L 534.184805 355.4964 
L 534.948665 351.50208 
L 535.330595 351.60408 
L 536.476386 351.39192 
L 537.240246 344.98632 
L 537.622177 345.14136 
L 538.004107 347.5608 
L 539.149897 345.14952 
L 539.531828 341.73864 
L 539.913758 344.37024 
L 540.295688 345.18216 
L 540.677618 344.83128 
L 541.823409 342.12624 
L 542.205339 342.10584 
L 542.587269 343.67256 
L 542.969199 340.1352 
L 544.87885 335.50848 
L 545.26078 338.3604 
L 545.64271 336.73248 
L 546.024641 333.49704 
L 547.552361 332.3016 
L 547.934292 326.8548 
L 548.316222 326.43864 
L 548.698152 334.41096 
L 549.843943 332.21184 
L 550.225873 328.27464 
L 550.607803 328.77648 
L 550.989733 327.66264 
L 551.371663 324.14976 
L 552.517454 326.2836 
L 552.899384 337.84632 
L 553.281314 334.72512 
L 553.663244 328.43376 
L 554.045175 336.63048 
L 555.190965 330.27792 
L 555.572895 341.9712 
L 555.954825 345.12504 
L 556.336756 360.5148 
L 556.718686 367.56096 
L 557.864476 347.63016 
L 558.246407 349.23768 
L 558.628337 342.75864 
L 559.010267 348.56448 
L 559.392197 357.44256 
L 560.537988 356.92848 
L 560.919918 363.5136 
L 561.301848 365.8596 
L 561.683778 383.59128 
L 562.065708 377.02248 
L 563.211499 382.7508 
L 563.593429 382.59576 
L 563.975359 385.0764 
L 564.35729 370.75152 
L 564.73922 376.32072 
L 566.26694 383.95032 
L 566.648871 372.66096 
L 567.030801 370.84536 
L 567.412731 386.32896 
L 568.558522 392.20824 
L 568.940452 387.504 
L 569.322382 390.07848 
L 569.704312 377.36928 
L 570.086242 375.4272 
L 571.232033 376.23096 
L 571.613963 365.78616 
L 571.995893 366.03912 
L 572.759754 364.85592 
L 573.905544 366.6144 
L 574.287474 373.91352 
L 574.669405 375.24768 
L 575.051335 382.73448 
L 575.433265 381.48192 
L 576.579055 382.37544 
L 576.960986 395.97408 
L 577.342916 400.27032 
L 577.724846 401.63304 
L 578.106776 403.58736 
L 579.634497 401.35152 
L 580.016427 388.20984 
L 580.780287 380.99232 
L 581.926078 380.67 
L 582.308008 373.90128 
L 582.689938 373.97064 
L 583.071869 373.43616 
L 583.453799 386.32896 
L 584.599589 383.73 
L 584.98152 378.74016 
L 585.36345 384.40728 
L 585.74538 374.58264 
L 586.12731 370.91472 
L 587.273101 365.87592 
L 587.655031 366.35328 
L 588.036961 369.49896 
L 588.418891 371.37576 
L 588.800821 371.3472 
L 589.946612 361.44912 
L 590.328542 363.65232 
L 590.710472 360.88608 
L 591.092402 361.46952 
L 591.474333 363.17088 
L 592.620123 360.66168 
L 593.002053 363.40752 
L 593.383984 376.29624 
L 594.147844 380.466 
L 595.293634 380.41296 
L 595.675565 375.04368 
L 596.057495 374.38272 
L 596.439425 381.94296 
L 596.821355 383.55048 
L 597.967146 385.31712 
L 598.349076 391.63704 
L 598.731006 390.22536 
L 599.112936 393.53424 
L 599.494867 386.44728 
L 600.640657 392.84064 
L 601.022587 392.67336 
L 601.404517 380.04168 
L 601.786448 376.0392 
L 602.168378 370.15992 
L 603.696099 375.32928 
L 604.459959 370.29456 
L 604.841889 368.1036 
L 605.98768 363.0648 
L 606.36961 363.3912 
L 606.75154 361.77144 
L 607.13347 361.93872 
L 607.5154 361.55928 
L 608.661191 354.57432 
L 609.043121 355.76976 
L 609.425051 358.01376 
L 609.806982 361.86936 
L 610.188912 352.14264 
L 611.334702 354.79872 
L 611.716632 352.5384 
L 612.480493 355.1904 
L 612.862423 353.13408 
L 614.008214 356.89176 
L 614.390144 347.214 
L 614.772074 347.53224 
L 615.154004 348.31152 
L 615.535934 345.4188 
L 616.681725 345.34944 
L 617.063655 343.53384 
L 617.445585 340.1352 
L 617.827515 341.88552 
L 618.209446 340.91448 
L 619.355236 337.43832 
L 619.737166 345.1128 
L 620.119097 340.10664 
L 620.501027 339.25392 
L 620.882957 338.10336 
L 622.028747 337.06704 
L 622.410678 337.05888 
L 622.792608 338.3604 
L 623.174538 337.81776 
L 623.556468 338.02992 
L 624.702259 337.57296 
L 625.084189 333.82344 
L 625.466119 332.03232 
L 625.848049 322.60752 
L 626.229979 320.6532 
L 627.37577 321.714 
L 627.7577 325.7328 
L 628.13963 323.56632 
L 628.521561 325.67568 
L 628.903491 331.52232 
L 630.049281 332.118 
L 630.431211 340.03728 
L 630.813142 339.93528 
L 631.195072 332.55048 
L 631.577002 331.31016 
L 632.722793 332.08128 
L 633.104723 339.06216 
L 633.486653 331.8732 
L 634.250513 335.5248 
L 635.396304 336.19392 
L 635.778234 339.1356 
L 636.160164 328.72344 
L 636.542094 322.41576 
L 636.924025 321.11832 
L 638.069815 321.76704 
L 638.451745 321.51 
L 639.215606 317.736 
L 639.597536 314.7168 
L 640.743326 314.69232 
L 641.125257 314.23128 
L 641.507187 316.82616 
L 641.889117 313.70904 
L 643.416838 311.99136 
L 643.798768 308.9232 
L 644.180698 307.19328 
L 644.562628 308.03784 
L 646.090349 307.72368 
L 646.854209 306.80976 
L 647.23614 307.58496 
L 647.61807 307.68288 
L 648.76386 301.87704 
L 648.76386 301.87704 
" clip-path="url(#pc839aae7e6)" style="fill: none; stroke: #000000; stroke-width: 1.5; stroke-linecap: round"/>
   </g>
   <g id="patch_3">
    <path d="M 90 576 
L 90 86.4 
" style="fill: none; stroke: #cccccc; stroke-width: 0.8; stroke-linejoin: miter; stroke-linecap: square"/>
   </g>
   <g id="patch_4">
    <path d="M 648 576 
L 648 86.4 
" style="fill: none; stroke: #cccccc; stroke-width: 0.8; stroke-linejoin: miter; stroke-linecap: square"/>
   </g>
   <g id="patch_5">
    <path d="M 90 576 
L 648 576 
" style="fill: none; stroke: #cccccc; stroke-width: 0.8; stroke-linejoin: miter; stroke-linecap: square"/>
   </g>
   <g id="patch_6">
    <path d="M 90 86.4 
L 648 86.4 
" style="fill: none; stroke: #cccccc; stroke-width: 0.8; stroke-linejoin: miter; stroke-linecap: square"/>
   </g>
   <g id="patch_7">
    <path d="M 199.086242 105.045778 
Q 199.086242 128.521936 199.086242 151.998095 
L 200.086242 151.998095 
Q 199.086242 153.999407 198.086242 156.00072 
Q 197.086242 153.999407 196.086242 151.998095 
L 197.086242 151.998095 
Q 197.086242 128.521936 197.086242 105.045778 
L 199.086242 105.045778 
z
" style="stroke: #ffffff; stroke-linecap: round"/>
   </g>
   <g id="text_18">
    <!-- Peak of bull market -->
    <g style="fill: #262626" transform="translate(198.086242 100.87947) scale(0.08 -0.08)">
     <defs>
      <path id="DejaVuSans-Bold-50" d="M 588 4666 
L 2584 4666 
Q 3475 4666 3951 4270 
Q 4428 3875 4428 3144 
Q 4428 2409 3951 2014 
Q 3475 1619 2584 1619 
L 1791 1619 
L 1791 0 
L 588 0 
L 588 4666 
z
M 1791 3794 
L 1791 2491 
L 2456 2491 
Q 2806 2491 2997 2661 
Q 3188 2831 3188 3144 
Q 3188 3456 2997 3625 
Q 2806 3794 2456 3794 
L 1791 3794 
z
" transform="scale(0.015625)"/>
      <path id="DejaVuSans-Bold-65" d="M 4031 1759 
L 4031 1441 
L 1416 1441 
Q 1456 1047 1700 850 
Q 1944 653 2381 653 
Q 2734 653 3104 758 
Q 3475 863 3866 1075 
L 3866 213 
Q 3469 63 3072 -14 
Q 2675 -91 2278 -91 
Q 1328 -91 801 392 
Q 275 875 275 1747 
Q 275 2603 792 3093 
Q 1309 3584 2216 3584 
Q 3041 3584 3536 3087 
Q 4031 2591 4031 1759 
z
M 2881 2131 
Q 2881 2450 2695 2645 
Q 2509 2841 2209 2841 
Q 1884 2841 1681 2658 
Q 1478 2475 1428 2131 
L 2881 2131 
z
" transform="scale(0.015625)"/>
      <path id="DejaVuSans-Bold-61" d="M 2106 1575 
Q 1756 1575 1579 1456 
Q 1403 1338 1403 1106 
Q 1403 894 1545 773 
Q 1688 653 1941 653 
Q 2256 653 2472 879 
Q 2688 1106 2688 1447 
L 2688 1575 
L 2106 1575 
z
M 3816 1997 
L 3816 0 
L 2688 0 
L 2688 519 
Q 2463 200 2181 54 
Q 1900 -91 1497 -91 
Q 953 -91 614 226 
Q 275 544 275 1050 
Q 275 1666 698 1953 
Q 1122 2241 2028 2241 
L 2688 2241 
L 2688 2328 
Q 2688 2594 2478 2717 
Q 2269 2841 1825 2841 
Q 1466 2841 1156 2769 
Q 847 2697 581 2553 
L 581 3406 
Q 941 3494 1303 3539 
Q 1666 3584 2028 3584 
Q 2975 3584 3395 3211 
Q 3816 2838 3816 1997 
z
" transform="scale(0.015625)"/>
      <path id="DejaVuSans-Bold-6b" d="M 538 4863 
L 1656 4863 
L 1656 2216 
L 2944 3500 
L 4244 3500 
L 2534 1894 
L 4378 0 
L 3022 0 
L 1656 1459 
L 1656 0 
L 538 0 
L 538 4863 
z
" transform="scale(0.015625)"/>
      <path id="DejaVuSans-Bold-20" transform="scale(0.015625)"/>
      <path id="DejaVuSans-Bold-6f" d="M 2203 2784 
Q 1831 2784 1636 2517 
Q 1441 2250 1441 1747 
Q 1441 1244 1636 976 
Q 1831 709 2203 709 
Q 2569 709 2762 976 
Q 2956 1244 2956 1747 
Q 2956 2250 2762 2517 
Q 2569 2784 2203 2784 
z
M 2203 3584 
Q 3106 3584 3614 3096 
Q 4122 2609 4122 1747 
Q 4122 884 3614 396 
Q 3106 -91 2203 -91 
Q 1297 -91 786 396 
Q 275 884 275 1747 
Q 275 2609 786 3096 
Q 1297 3584 2203 3584 
z
" transform="scale(0.015625)"/>
      <path id="DejaVuSans-Bold-66" d="M 2841 4863 
L 2841 4128 
L 2222 4128 
Q 1984 4128 1890 4042 
Q 1797 3956 1797 3744 
L 1797 3500 
L 2753 3500 
L 2753 2700 
L 1797 2700 
L 1797 0 
L 678 0 
L 678 2700 
L 122 2700 
L 122 3500 
L 678 3500 
L 678 3744 
Q 678 4316 997 4589 
Q 1316 4863 1984 4863 
L 2841 4863 
z
" transform="scale(0.015625)"/>
      <path id="DejaVuSans-Bold-62" d="M 2400 722 
Q 2759 722 2948 984 
Q 3138 1247 3138 1747 
Q 3138 2247 2948 2509 
Q 2759 2772 2400 2772 
Q 2041 2772 1848 2508 
Q 1656 2244 1656 1747 
Q 1656 1250 1848 986 
Q 2041 722 2400 722 
z
M 1656 2988 
Q 1888 3294 2169 3439 
Q 2450 3584 2816 3584 
Q 3463 3584 3878 3070 
Q 4294 2556 4294 1747 
Q 4294 938 3878 423 
Q 3463 -91 2816 -91 
Q 2450 -91 2169 54 
Q 1888 200 1656 506 
L 1656 0 
L 538 0 
L 538 4863 
L 1656 4863 
L 1656 2988 
z
" transform="scale(0.015625)"/>
      <path id="DejaVuSans-Bold-75" d="M 500 1363 
L 500 3500 
L 1625 3500 
L 1625 3150 
Q 1625 2866 1622 2436 
Q 1619 2006 1619 1863 
Q 1619 1441 1641 1255 
Q 1663 1069 1716 984 
Q 1784 875 1895 815 
Q 2006 756 2150 756 
Q 2500 756 2700 1025 
Q 2900 1294 2900 1772 
L 2900 3500 
L 4019 3500 
L 4019 0 
L 2900 0 
L 2900 506 
Q 2647 200 2364 54 
Q 2081 -91 1741 -91 
Q 1134 -91 817 281 
Q 500 653 500 1363 
z
" transform="scale(0.015625)"/>
      <path id="DejaVuSans-Bold-6c" d="M 538 4863 
L 1656 4863 
L 1656 0 
L 538 0 
L 538 4863 
z
" transform="scale(0.015625)"/>
      <path id="DejaVuSans-Bold-6d" d="M 3781 2919 
Q 3994 3244 4286 3414 
Q 4578 3584 4928 3584 
Q 5531 3584 5847 3212 
Q 6163 2841 6163 2131 
L 6163 0 
L 5038 0 
L 5038 1825 
Q 5041 1866 5042 1909 
Q 5044 1953 5044 2034 
Q 5044 2406 4934 2573 
Q 4825 2741 4581 2741 
Q 4263 2741 4089 2478 
Q 3916 2216 3909 1719 
L 3909 0 
L 2784 0 
L 2784 1825 
Q 2784 2406 2684 2573 
Q 2584 2741 2328 2741 
Q 2006 2741 1831 2477 
Q 1656 2213 1656 1722 
L 1656 0 
L 531 0 
L 531 3500 
L 1656 3500 
L 1656 2988 
Q 1863 3284 2130 3434 
Q 2397 3584 2719 3584 
Q 3081 3584 3359 3409 
Q 3638 3234 3781 2919 
z
" transform="scale(0.015625)"/>
      <path id="DejaVuSans-Bold-72" d="M 3138 2547 
Q 2991 2616 2845 2648 
Q 2700 2681 2553 2681 
Q 2122 2681 1889 2404 
Q 1656 2128 1656 1613 
L 1656 0 
L 538 0 
L 538 3500 
L 1656 3500 
L 1656 2925 
Q 1872 3269 2151 3426 
Q 2431 3584 2822 3584 
Q 2878 3584 2943 3579 
Q 3009 3575 3134 3559 
L 3138 2547 
z
" transform="scale(0.015625)"/>
      <path id="DejaVuSans-Bold-74" d="M 1759 4494 
L 1759 3500 
L 2913 3500 
L 2913 2700 
L 1759 2700 
L 1759 1216 
Q 1759 972 1856 886 
Q 1953 800 2241 800 
L 2816 800 
L 2816 0 
L 1856 0 
Q 1194 0 917 276 
Q 641 553 641 1216 
L 641 2700 
L 84 2700 
L 84 3500 
L 641 3500 
L 641 4494 
L 1759 4494 
z
" transform="scale(0.015625)"/>
     </defs>
     <use xlink:href="#DejaVuSans-Bold-50"/>
     <use xlink:href="#DejaVuSans-Bold-65" x="73.291016"/>
     <use xlink:href="#DejaVuSans-Bold-61" x="141.113281"/>
     <use xlink:href="#DejaVuSans-Bold-6b" x="208.59375"/>
     <use xlink:href="#DejaVuSans-Bold-20" x="275.097656"/>
     <use xlink:href="#DejaVuSans-Bold-6f" x="309.912109"/>
     <use xlink:href="#DejaVuSans-Bold-66" x="378.613281"/>
     <use xlink:href="#DejaVuSans-Bold-20" x="422.119141"/>
     <use xlink:href="#DejaVuSans-Bold-62" x="456.933594"/>
     <use xlink:href="#DejaVuSans-Bold-75" x="528.515625"/>
     <use xlink:href="#DejaVuSans-Bold-6c" x="599.707031"/>
     <use xlink:href="#DejaVuSans-Bold-6c" x="633.984375"/>
     <use xlink:href="#DejaVuSans-Bold-20" x="668.261719"/>
     <use xlink:href="#DejaVuSans-Bold-6d" x="703.076172"/>
     <use xlink:href="#DejaVuSans-Bold-61" x="807.275391"/>
     <use xlink:href="#DejaVuSans-Bold-72" x="874.755859"/>
     <use xlink:href="#DejaVuSans-Bold-6b" x="924.072266"/>
     <use xlink:href="#DejaVuSans-Bold-65" x="987.951172"/>
     <use xlink:href="#DejaVuSans-Bold-74" x="1055.773438"/>
    </g>
   </g>
   <g id="patch_8">
    <path d="M 257.521561 205.266898 
Q 257.521561 228.743056 257.521561 252.219215 
L 258.521561 252.219215 
Q 257.521561 254.220527 256.521561 256.22184 
Q 255.521561 254.220527 254.521561 252.219215 
L 255.521561 252.219215 
Q 255.521561 228.743056 255.521561 205.266898 
L 257.521561 205.266898 
z
" style="stroke: #ffffff; stroke-linecap: round"/>
   </g>
   <g id="text_19">
    <!-- Bear Stearns Fails -->
    <g style="fill: #262626" transform="translate(256.521561 201.10059) scale(0.08 -0.08)">
     <defs>
      <path id="DejaVuSans-Bold-42" d="M 2456 2859 
Q 2741 2859 2887 2984 
Q 3034 3109 3034 3353 
Q 3034 3594 2887 3720 
Q 2741 3847 2456 3847 
L 1791 3847 
L 1791 2859 
L 2456 2859 
z
M 2497 819 
Q 2859 819 3042 972 
Q 3225 1125 3225 1434 
Q 3225 1738 3044 1889 
Q 2863 2041 2497 2041 
L 1791 2041 
L 1791 819 
L 2497 819 
z
M 3616 2497 
Q 4003 2384 4215 2081 
Q 4428 1778 4428 1338 
Q 4428 663 3972 331 
Q 3516 0 2584 0 
L 588 0 
L 588 4666 
L 2394 4666 
Q 3366 4666 3802 4372 
Q 4238 4078 4238 3431 
Q 4238 3091 4078 2852 
Q 3919 2613 3616 2497 
z
" transform="scale(0.015625)"/>
      <path id="DejaVuSans-Bold-53" d="M 3834 4519 
L 3834 3531 
Q 3450 3703 3084 3790 
Q 2719 3878 2394 3878 
Q 1963 3878 1756 3759 
Q 1550 3641 1550 3391 
Q 1550 3203 1689 3098 
Q 1828 2994 2194 2919 
L 2706 2816 
Q 3484 2659 3812 2340 
Q 4141 2022 4141 1434 
Q 4141 663 3683 286 
Q 3225 -91 2284 -91 
Q 1841 -91 1394 -6 
Q 947 78 500 244 
L 500 1259 
Q 947 1022 1364 901 
Q 1781 781 2169 781 
Q 2563 781 2772 912 
Q 2981 1044 2981 1288 
Q 2981 1506 2839 1625 
Q 2697 1744 2272 1838 
L 1806 1941 
Q 1106 2091 782 2419 
Q 459 2747 459 3303 
Q 459 4000 909 4375 
Q 1359 4750 2203 4750 
Q 2588 4750 2994 4692 
Q 3400 4634 3834 4519 
z
" transform="scale(0.015625)"/>
      <path id="DejaVuSans-Bold-6e" d="M 4056 2131 
L 4056 0 
L 2931 0 
L 2931 347 
L 2931 1631 
Q 2931 2084 2911 2256 
Q 2891 2428 2841 2509 
Q 2775 2619 2662 2680 
Q 2550 2741 2406 2741 
Q 2056 2741 1856 2470 
Q 1656 2200 1656 1722 
L 1656 0 
L 538 0 
L 538 3500 
L 1656 3500 
L 1656 2988 
Q 1909 3294 2193 3439 
Q 2478 3584 2822 3584 
Q 3428 3584 3742 3212 
Q 4056 2841 4056 2131 
z
" transform="scale(0.015625)"/>
      <path id="DejaVuSans-Bold-73" d="M 3272 3391 
L 3272 2541 
Q 2913 2691 2578 2766 
Q 2244 2841 1947 2841 
Q 1628 2841 1473 2761 
Q 1319 2681 1319 2516 
Q 1319 2381 1436 2309 
Q 1553 2238 1856 2203 
L 2053 2175 
Q 2913 2066 3209 1816 
Q 3506 1566 3506 1031 
Q 3506 472 3093 190 
Q 2681 -91 1863 -91 
Q 1516 -91 1145 -36 
Q 775 19 384 128 
L 384 978 
Q 719 816 1070 734 
Q 1422 653 1784 653 
Q 2113 653 2278 743 
Q 2444 834 2444 1013 
Q 2444 1163 2330 1236 
Q 2216 1309 1875 1350 
L 1678 1375 
Q 931 1469 631 1722 
Q 331 1975 331 2491 
Q 331 3047 712 3315 
Q 1094 3584 1881 3584 
Q 2191 3584 2531 3537 
Q 2872 3491 3272 3391 
z
" transform="scale(0.015625)"/>
      <path id="DejaVuSans-Bold-46" d="M 588 4666 
L 3834 4666 
L 3834 3756 
L 1791 3756 
L 1791 2888 
L 3713 2888 
L 3713 1978 
L 1791 1978 
L 1791 0 
L 588 0 
L 588 4666 
z
" transform="scale(0.015625)"/>
      <path id="DejaVuSans-Bold-69" d="M 538 3500 
L 1656 3500 
L 1656 0 
L 538 0 
L 538 3500 
z
M 538 4863 
L 1656 4863 
L 1656 3950 
L 538 3950 
L 538 4863 
z
" transform="scale(0.015625)"/>
     </defs>
     <use xlink:href="#DejaVuSans-Bold-42"/>
     <use xlink:href="#DejaVuSans-Bold-65" x="76.220703"/>
     <use xlink:href="#DejaVuSans-Bold-61" x="144.042969"/>
     <use xlink:href="#DejaVuSans-Bold-72" x="211.523438"/>
     <use xlink:href="#DejaVuSans-Bold-20" x="260.839844"/>
     <use xlink:href="#DejaVuSans-Bold-53" x="295.654297"/>
     <use xlink:href="#DejaVuSans-Bold-74" x="367.675781"/>
     <use xlink:href="#DejaVuSans-Bold-65" x="415.478516"/>
     <use xlink:href="#DejaVuSans-Bold-61" x="483.300781"/>
     <use xlink:href="#DejaVuSans-Bold-72" x="550.78125"/>
     <use xlink:href="#DejaVuSans-Bold-6e" x="600.097656"/>
     <use xlink:href="#DejaVuSans-Bold-73" x="671.289062"/>
     <use xlink:href="#DejaVuSans-Bold-20" x="730.810547"/>
     <use xlink:href="#DejaVuSans-Bold-46" x="765.625"/>
     <use xlink:href="#DejaVuSans-Bold-61" x="828.060547"/>
     <use xlink:href="#DejaVuSans-Bold-69" x="895.541016"/>
     <use xlink:href="#DejaVuSans-Bold-6c" x="929.818359"/>
     <use xlink:href="#DejaVuSans-Bold-73" x="964.095703"/>
    </g>
   </g>
   <g id="patch_9">
    <path d="M 328.942505 252.683032 
Q 328.942505 276.131743 328.942505 299.580455 
L 329.942505 299.580455 
Q 328.942505 301.579427 327.942505 303.5784 
Q 326.942505 301.579427 325.942505 299.580455 
L 326.942505 299.580455 
Q 326.942505 276.131743 326.942505 252.683032 
L 328.942505 252.683032 
z
" style="stroke: #ffffff; stroke-linecap: round"/>
   </g>
   <g id="text_20">
    <!-- Lehman Bankruptcy -->
    <g style="fill: #262626" transform="translate(327.942505 248.45715) scale(0.08 -0.08)">
     <defs>
      <path id="DejaVuSans-Bold-4c" d="M 588 4666 
L 1791 4666 
L 1791 909 
L 3903 909 
L 3903 0 
L 588 0 
L 588 4666 
z
" transform="scale(0.015625)"/>
      <path id="DejaVuSans-Bold-68" d="M 4056 2131 
L 4056 0 
L 2931 0 
L 2931 347 
L 2931 1625 
Q 2931 2084 2911 2256 
Q 2891 2428 2841 2509 
Q 2775 2619 2662 2680 
Q 2550 2741 2406 2741 
Q 2056 2741 1856 2470 
Q 1656 2200 1656 1722 
L 1656 0 
L 538 0 
L 538 4863 
L 1656 4863 
L 1656 2988 
Q 1909 3294 2193 3439 
Q 2478 3584 2822 3584 
Q 3428 3584 3742 3212 
Q 4056 2841 4056 2131 
z
" transform="scale(0.015625)"/>
      <path id="DejaVuSans-Bold-70" d="M 1656 506 
L 1656 -1331 
L 538 -1331 
L 538 3500 
L 1656 3500 
L 1656 2988 
Q 1888 3294 2169 3439 
Q 2450 3584 2816 3584 
Q 3463 3584 3878 3070 
Q 4294 2556 4294 1747 
Q 4294 938 3878 423 
Q 3463 -91 2816 -91 
Q 2450 -91 2169 54 
Q 1888 200 1656 506 
z
M 2400 2772 
Q 2041 2772 1848 2508 
Q 1656 2244 1656 1747 
Q 1656 1250 1848 986 
Q 2041 722 2400 722 
Q 2759 722 2948 984 
Q 3138 1247 3138 1747 
Q 3138 2247 2948 2509 
Q 2759 2772 2400 2772 
z
" transform="scale(0.015625)"/>
      <path id="DejaVuSans-Bold-63" d="M 3366 3391 
L 3366 2478 
Q 3138 2634 2908 2709 
Q 2678 2784 2431 2784 
Q 1963 2784 1702 2511 
Q 1441 2238 1441 1747 
Q 1441 1256 1702 982 
Q 1963 709 2431 709 
Q 2694 709 2930 787 
Q 3166 866 3366 1019 
L 3366 103 
Q 3103 6 2833 -42 
Q 2563 -91 2291 -91 
Q 1344 -91 809 395 
Q 275 881 275 1747 
Q 275 2613 809 3098 
Q 1344 3584 2291 3584 
Q 2566 3584 2833 3536 
Q 3100 3488 3366 3391 
z
" transform="scale(0.015625)"/>
      <path id="DejaVuSans-Bold-79" d="M 78 3500 
L 1197 3500 
L 2138 1125 
L 2938 3500 
L 4056 3500 
L 2584 -331 
Q 2363 -916 2067 -1148 
Q 1772 -1381 1288 -1381 
L 641 -1381 
L 641 -647 
L 991 -647 
Q 1275 -647 1404 -556 
Q 1534 -466 1606 -231 
L 1638 -134 
L 78 3500 
z
" transform="scale(0.015625)"/>
     </defs>
     <use xlink:href="#DejaVuSans-Bold-4c"/>
     <use xlink:href="#DejaVuSans-Bold-65" x="63.720703"/>
     <use xlink:href="#DejaVuSans-Bold-68" x="131.542969"/>
     <use xlink:href="#DejaVuSans-Bold-6d" x="202.734375"/>
     <use xlink:href="#DejaVuSans-Bold-61" x="306.933594"/>
     <use xlink:href="#DejaVuSans-Bold-6e" x="374.414062"/>
     <use xlink:href="#DejaVuSans-Bold-20" x="445.605469"/>
     <use xlink:href="#DejaVuSans-Bold-42" x="480.419922"/>
     <use xlink:href="#DejaVuSans-Bold-61" x="556.640625"/>
     <use xlink:href="#DejaVuSans-Bold-6e" x="624.121094"/>
     <use xlink:href="#DejaVuSans-Bold-6b" x="695.3125"/>
     <use xlink:href="#DejaVuSans-Bold-72" x="761.816406"/>
     <use xlink:href="#DejaVuSans-Bold-75" x="811.132812"/>
     <use xlink:href="#DejaVuSans-Bold-70" x="882.324219"/>
     <use xlink:href="#DejaVuSans-Bold-74" x="953.90625"/>
     <use xlink:href="#DejaVuSans-Bold-63" x="1001.708984"/>
     <use xlink:href="#DejaVuSans-Bold-79" x="1060.986328"/>
    </g>
   </g>
   <g id="text_21">
    <!-- Important dates in the 2008-2009 financial crisis -->
    <g style="fill: #262626" transform="translate(251.733 80.4) scale(0.096 -0.096)">
     <defs>
      <path id="DejaVuSans-49" d="M 628 4666 
L 1259 4666 
L 1259 0 
L 628 0 
L 628 4666 
z
" transform="scale(0.015625)"/>
      <path id="DejaVuSans-6d" d="M 3328 2828 
Q 3544 3216 3844 3400 
Q 4144 3584 4550 3584 
Q 5097 3584 5394 3201 
Q 5691 2819 5691 2113 
L 5691 0 
L 5113 0 
L 5113 2094 
Q 5113 2597 4934 2840 
Q 4756 3084 4391 3084 
Q 3944 3084 3684 2787 
Q 3425 2491 3425 1978 
L 3425 0 
L 2847 0 
L 2847 2094 
Q 2847 2600 2669 2842 
Q 2491 3084 2119 3084 
Q 1678 3084 1418 2786 
Q 1159 2488 1159 1978 
L 1159 0 
L 581 0 
L 581 3500 
L 1159 3500 
L 1159 2956 
Q 1356 3278 1631 3431 
Q 1906 3584 2284 3584 
Q 2666 3584 2933 3390 
Q 3200 3197 3328 2828 
z
" transform="scale(0.015625)"/>
      <path id="DejaVuSans-70" d="M 1159 525 
L 1159 -1331 
L 581 -1331 
L 581 3500 
L 1159 3500 
L 1159 2969 
Q 1341 3281 1617 3432 
Q 1894 3584 2278 3584 
Q 2916 3584 3314 3078 
Q 3713 2572 3713 1747 
Q 3713 922 3314 415 
Q 2916 -91 2278 -91 
Q 1894 -91 1617 61 
Q 1341 213 1159 525 
z
M 3116 1747 
Q 3116 2381 2855 2742 
Q 2594 3103 2138 3103 
Q 1681 3103 1420 2742 
Q 1159 2381 1159 1747 
Q 1159 1113 1420 752 
Q 1681 391 2138 391 
Q 2594 391 2855 752 
Q 3116 1113 3116 1747 
z
" transform="scale(0.015625)"/>
      <path id="DejaVuSans-6f" d="M 1959 3097 
Q 1497 3097 1228 2736 
Q 959 2375 959 1747 
Q 959 1119 1226 758 
Q 1494 397 1959 397 
Q 2419 397 2687 759 
Q 2956 1122 2956 1747 
Q 2956 2369 2687 2733 
Q 2419 3097 1959 3097 
z
M 1959 3584 
Q 2709 3584 3137 3096 
Q 3566 2609 3566 1747 
Q 3566 888 3137 398 
Q 2709 -91 1959 -91 
Q 1206 -91 779 398 
Q 353 888 353 1747 
Q 353 2609 779 3096 
Q 1206 3584 1959 3584 
z
" transform="scale(0.015625)"/>
      <path id="DejaVuSans-72" d="M 2631 2963 
Q 2534 3019 2420 3045 
Q 2306 3072 2169 3072 
Q 1681 3072 1420 2755 
Q 1159 2438 1159 1844 
L 1159 0 
L 581 0 
L 581 3500 
L 1159 3500 
L 1159 2956 
Q 1341 3275 1631 3429 
Q 1922 3584 2338 3584 
Q 2397 3584 2469 3576 
Q 2541 3569 2628 3553 
L 2631 2963 
z
" transform="scale(0.015625)"/>
      <path id="DejaVuSans-6e" d="M 3513 2113 
L 3513 0 
L 2938 0 
L 2938 2094 
Q 2938 2591 2744 2837 
Q 2550 3084 2163 3084 
Q 1697 3084 1428 2787 
Q 1159 2491 1159 1978 
L 1159 0 
L 581 0 
L 581 3500 
L 1159 3500 
L 1159 2956 
Q 1366 3272 1645 3428 
Q 1925 3584 2291 3584 
Q 2894 3584 3203 3211 
Q 3513 2838 3513 2113 
z
" transform="scale(0.015625)"/>
      <path id="DejaVuSans-20" transform="scale(0.015625)"/>
      <path id="DejaVuSans-64" d="M 2906 2969 
L 2906 4863 
L 3481 4863 
L 3481 0 
L 2906 0 
L 2906 525 
Q 2725 213 2448 61 
Q 2172 -91 1784 -91 
Q 1150 -91 751 415 
Q 353 922 353 1747 
Q 353 2572 751 3078 
Q 1150 3584 1784 3584 
Q 2172 3584 2448 3432 
Q 2725 3281 2906 2969 
z
M 947 1747 
Q 947 1113 1208 752 
Q 1469 391 1925 391 
Q 2381 391 2643 752 
Q 2906 1113 2906 1747 
Q 2906 2381 2643 2742 
Q 2381 3103 1925 3103 
Q 1469 3103 1208 2742 
Q 947 2381 947 1747 
z
" transform="scale(0.015625)"/>
      <path id="DejaVuSans-73" d="M 2834 3397 
L 2834 2853 
Q 2591 2978 2328 3040 
Q 2066 3103 1784 3103 
Q 1356 3103 1142 2972 
Q 928 2841 928 2578 
Q 928 2378 1081 2264 
Q 1234 2150 1697 2047 
L 1894 2003 
Q 2506 1872 2764 1633 
Q 3022 1394 3022 966 
Q 3022 478 2636 193 
Q 2250 -91 1575 -91 
Q 1294 -91 989 -36 
Q 684 19 347 128 
L 347 722 
Q 666 556 975 473 
Q 1284 391 1588 391 
Q 1994 391 2212 530 
Q 2431 669 2431 922 
Q 2431 1156 2273 1281 
Q 2116 1406 1581 1522 
L 1381 1569 
Q 847 1681 609 1914 
Q 372 2147 372 2553 
Q 372 3047 722 3315 
Q 1072 3584 1716 3584 
Q 2034 3584 2315 3537 
Q 2597 3491 2834 3397 
z
" transform="scale(0.015625)"/>
      <path id="DejaVuSans-69" d="M 603 3500 
L 1178 3500 
L 1178 0 
L 603 0 
L 603 3500 
z
M 603 4863 
L 1178 4863 
L 1178 4134 
L 603 4134 
L 603 4863 
z
" transform="scale(0.015625)"/>
      <path id="DejaVuSans-68" d="M 3513 2113 
L 3513 0 
L 2938 0 
L 2938 2094 
Q 2938 2591 2744 2837 
Q 2550 3084 2163 3084 
Q 1697 3084 1428 2787 
Q 1159 2491 1159 1978 
L 1159 0 
L 581 0 
L 581 4863 
L 1159 4863 
L 1159 2956 
Q 1366 3272 1645 3428 
Q 1925 3584 2291 3584 
Q 2894 3584 3203 3211 
Q 3513 2838 3513 2113 
z
" transform="scale(0.015625)"/>
      <path id="DejaVuSans-32" d="M 1228 531 
L 3431 531 
L 3431 0 
L 469 0 
L 469 531 
Q 828 903 1448 1529 
Q 2069 2156 2228 2338 
Q 2531 2678 2651 2914 
Q 2772 3150 2772 3378 
Q 2772 3750 2511 3984 
Q 2250 4219 1831 4219 
Q 1534 4219 1204 4116 
Q 875 4013 500 3803 
L 500 4441 
Q 881 4594 1212 4672 
Q 1544 4750 1819 4750 
Q 2544 4750 2975 4387 
Q 3406 4025 3406 3419 
Q 3406 3131 3298 2873 
Q 3191 2616 2906 2266 
Q 2828 2175 2409 1742 
Q 1991 1309 1228 531 
z
" transform="scale(0.015625)"/>
      <path id="DejaVuSans-30" d="M 2034 4250 
Q 1547 4250 1301 3770 
Q 1056 3291 1056 2328 
Q 1056 1369 1301 889 
Q 1547 409 2034 409 
Q 2525 409 2770 889 
Q 3016 1369 3016 2328 
Q 3016 3291 2770 3770 
Q 2525 4250 2034 4250 
z
M 2034 4750 
Q 2819 4750 3233 4129 
Q 3647 3509 3647 2328 
Q 3647 1150 3233 529 
Q 2819 -91 2034 -91 
Q 1250 -91 836 529 
Q 422 1150 422 2328 
Q 422 3509 836 4129 
Q 1250 4750 2034 4750 
z
" transform="scale(0.015625)"/>
      <path id="DejaVuSans-38" d="M 2034 2216 
Q 1584 2216 1326 1975 
Q 1069 1734 1069 1313 
Q 1069 891 1326 650 
Q 1584 409 2034 409 
Q 2484 409 2743 651 
Q 3003 894 3003 1313 
Q 3003 1734 2745 1975 
Q 2488 2216 2034 2216 
z
M 1403 2484 
Q 997 2584 770 2862 
Q 544 3141 544 3541 
Q 544 4100 942 4425 
Q 1341 4750 2034 4750 
Q 2731 4750 3128 4425 
Q 3525 4100 3525 3541 
Q 3525 3141 3298 2862 
Q 3072 2584 2669 2484 
Q 3125 2378 3379 2068 
Q 3634 1759 3634 1313 
Q 3634 634 3220 271 
Q 2806 -91 2034 -91 
Q 1263 -91 848 271 
Q 434 634 434 1313 
Q 434 1759 690 2068 
Q 947 2378 1403 2484 
z
M 1172 3481 
Q 1172 3119 1398 2916 
Q 1625 2713 2034 2713 
Q 2441 2713 2670 2916 
Q 2900 3119 2900 3481 
Q 2900 3844 2670 4047 
Q 2441 4250 2034 4250 
Q 1625 4250 1398 4047 
Q 1172 3844 1172 3481 
z
" transform="scale(0.015625)"/>
      <path id="DejaVuSans-2d" d="M 313 2009 
L 1997 2009 
L 1997 1497 
L 313 1497 
L 313 2009 
z
" transform="scale(0.015625)"/>
      <path id="DejaVuSans-39" d="M 703 97 
L 703 672 
Q 941 559 1184 500 
Q 1428 441 1663 441 
Q 2288 441 2617 861 
Q 2947 1281 2994 2138 
Q 2813 1869 2534 1725 
Q 2256 1581 1919 1581 
Q 1219 1581 811 2004 
Q 403 2428 403 3163 
Q 403 3881 828 4315 
Q 1253 4750 1959 4750 
Q 2769 4750 3195 4129 
Q 3622 3509 3622 2328 
Q 3622 1225 3098 567 
Q 2575 -91 1691 -91 
Q 1453 -91 1209 -44 
Q 966 3 703 97 
z
M 1959 2075 
Q 2384 2075 2632 2365 
Q 2881 2656 2881 3163 
Q 2881 3666 2632 3958 
Q 2384 4250 1959 4250 
Q 1534 4250 1286 3958 
Q 1038 3666 1038 3163 
Q 1038 2656 1286 2365 
Q 1534 2075 1959 2075 
z
" transform="scale(0.015625)"/>
      <path id="DejaVuSans-66" d="M 2375 4863 
L 2375 4384 
L 1825 4384 
Q 1516 4384 1395 4259 
Q 1275 4134 1275 3809 
L 1275 3500 
L 2222 3500 
L 2222 3053 
L 1275 3053 
L 1275 0 
L 697 0 
L 697 3053 
L 147 3053 
L 147 3500 
L 697 3500 
L 697 3744 
Q 697 4328 969 4595 
Q 1241 4863 1831 4863 
L 2375 4863 
z
" transform="scale(0.015625)"/>
      <path id="DejaVuSans-63" d="M 3122 3366 
L 3122 2828 
Q 2878 2963 2633 3030 
Q 2388 3097 2138 3097 
Q 1578 3097 1268 2742 
Q 959 2388 959 1747 
Q 959 1106 1268 751 
Q 1578 397 2138 397 
Q 2388 397 2633 464 
Q 2878 531 3122 666 
L 3122 134 
Q 2881 22 2623 -34 
Q 2366 -91 2075 -91 
Q 1284 -91 818 406 
Q 353 903 353 1747 
Q 353 2603 823 3093 
Q 1294 3584 2113 3584 
Q 2378 3584 2631 3529 
Q 2884 3475 3122 3366 
z
" transform="scale(0.015625)"/>
      <path id="DejaVuSans-6c" d="M 603 4863 
L 1178 4863 
L 1178 0 
L 603 0 
L 603 4863 
z
" transform="scale(0.015625)"/>
     </defs>
     <use xlink:href="#DejaVuSans-49"/>
     <use xlink:href="#DejaVuSans-6d" x="29.492188"/>
     <use xlink:href="#DejaVuSans-70" x="126.904297"/>
     <use xlink:href="#DejaVuSans-6f" x="190.380859"/>
     <use xlink:href="#DejaVuSans-72" x="251.5625"/>
     <use xlink:href="#DejaVuSans-74" x="292.675781"/>
     <use xlink:href="#DejaVuSans-61" x="331.884766"/>
     <use xlink:href="#DejaVuSans-6e" x="393.164062"/>
     <use xlink:href="#DejaVuSans-74" x="456.542969"/>
     <use xlink:href="#DejaVuSans-20" x="495.751953"/>
     <use xlink:href="#DejaVuSans-64" x="527.539062"/>
     <use xlink:href="#DejaVuSans-61" x="591.015625"/>
     <use xlink:href="#DejaVuSans-74" x="652.294922"/>
     <use xlink:href="#DejaVuSans-65" x="691.503906"/>
     <use xlink:href="#DejaVuSans-73" x="753.027344"/>
     <use xlink:href="#DejaVuSans-20" x="805.126953"/>
     <use xlink:href="#DejaVuSans-69" x="836.914062"/>
     <use xlink:href="#DejaVuSans-6e" x="864.697266"/>
     <use xlink:href="#DejaVuSans-20" x="928.076172"/>
     <use xlink:href="#DejaVuSans-74" x="959.863281"/>
     <use xlink:href="#DejaVuSans-68" x="999.072266"/>
     <use xlink:href="#DejaVuSans-65" x="1062.451172"/>
     <use xlink:href="#DejaVuSans-20" x="1123.974609"/>
     <use xlink:href="#DejaVuSans-32" x="1155.761719"/>
     <use xlink:href="#DejaVuSans-30" x="1219.384766"/>
     <use xlink:href="#DejaVuSans-30" x="1283.007812"/>
     <use xlink:href="#DejaVuSans-38" x="1346.630859"/>
     <use xlink:href="#DejaVuSans-2d" x="1410.253906"/>
     <use xlink:href="#DejaVuSans-32" x="1446.337891"/>
     <use xlink:href="#DejaVuSans-30" x="1509.960938"/>
     <use xlink:href="#DejaVuSans-30" x="1573.583984"/>
     <use xlink:href="#DejaVuSans-39" x="1637.207031"/>
     <use xlink:href="#DejaVuSans-20" x="1700.830078"/>
     <use xlink:href="#DejaVuSans-66" x="1732.617188"/>
     <use xlink:href="#DejaVuSans-69" x="1767.822266"/>
     <use xlink:href="#DejaVuSans-6e" x="1795.605469"/>
     <use xlink:href="#DejaVuSans-61" x="1858.984375"/>
     <use xlink:href="#DejaVuSans-6e" x="1920.263672"/>
     <use xlink:href="#DejaVuSans-63" x="1983.642578"/>
     <use xlink:href="#DejaVuSans-69" x="2038.623047"/>
     <use xlink:href="#DejaVuSans-61" x="2066.40625"/>
     <use xlink:href="#DejaVuSans-6c" x="2127.685547"/>
     <use xlink:href="#DejaVuSans-20" x="2155.46875"/>
     <use xlink:href="#DejaVuSans-63" x="2187.255859"/>
     <use xlink:href="#DejaVuSans-72" x="2242.236328"/>
     <use xlink:href="#DejaVuSans-69" x="2283.349609"/>
     <use xlink:href="#DejaVuSans-73" x="2311.132812"/>
     <use xlink:href="#DejaVuSans-69" x="2363.232422"/>
     <use xlink:href="#DejaVuSans-73" x="2391.015625"/>
    </g>
   </g>
  </g>
 </g>
 <defs>
  <clipPath id="pc839aae7e6">
   <rect x="90" y="86.4" width="558" height="489.6"/>
  </clipPath>
 </defs>
</svg>
